<svg width="178" height="178" viewBox="0 0 178 178" fill="none" xmlns="http://www.w3.org/2000/svg">
<path d="M141.764 34.4134C146.344 34.4134 150.07 30.6867 150.07 26.1067C150.07 21.5268 146.344 17.8 141.764 17.8C137.184 17.8 133.457 21.5268 133.457 26.1067C133.457 30.6867 137.184 34.4134 141.764 34.4134ZM141.764 22.5467C143.727 22.5467 145.324 24.1434 145.324 26.1067C145.324 28.0701 143.727 29.6667 141.764 29.6667C139.8 29.6667 138.204 28.0701 138.204 26.1067C138.204 24.1434 139.8 22.5467 141.764 22.5467Z" fill="#58732F"/>
<path d="M148.569 54.5865C148.569 56.0704 149.773 57.2737 151.257 57.2737C152.742 57.2737 153.945 56.0704 153.945 54.5865C153.945 53.102 152.742 51.8987 151.257 51.8987C149.773 51.8987 148.569 53.102 148.569 54.5865Z" fill="#58732F"/>
<path d="M20.6194 34.5177C21.0828 34.9811 21.6904 35.2131 22.2974 35.2131C22.9044 35.2131 23.5119 34.9811 23.9753 34.5177L26.6572 31.8358L29.3391 34.5177C29.8025 34.9811 30.41 35.2131 31.017 35.2131C31.624 35.2131 32.2316 34.9811 32.695 34.5177C33.6217 33.5909 33.6217 32.0886 32.695 31.1618L30.0131 28.4799L32.695 25.7981C33.6217 24.8713 33.6217 23.3689 32.695 22.4422C31.7682 21.5154 30.2658 21.5154 29.3391 22.4422L26.6572 25.124L23.9753 22.4422C23.0485 21.5154 21.5462 21.5154 20.6194 22.4422C19.6927 23.3689 19.6927 24.8713 20.6194 25.7981L23.3007 28.4799L20.6188 31.1618C19.6921 32.0886 19.6921 33.5903 20.6194 34.5177Z" fill="#58732F"/>
<path d="M114.017 115.802L95.4834 107.605V103.934C103.372 99.3834 109.342 91.9281 111.89 83.0619C113.438 83.1213 114.919 82.6786 116.354 81.7851C118.557 80.4133 120.046 78.1764 120.339 75.8031C120.631 73.425 119.897 71.0404 118.321 69.2592C117.858 68.7359 117.326 68.2939 116.76 67.9082C128.619 65.3195 134.643 61.6438 134.643 56.96C134.643 51.2611 125.697 47.6856 114.469 45.5419V33.2267C114.469 32.2708 113.896 31.4087 113.015 31.0385C90.4549 21.5612 70.3925 21.5843 51.6865 31.1115C50.8902 31.5173 50.3894 32.3343 50.3894 33.2261V45.1159C38.076 47.1991 27.8428 50.8641 27.8428 56.9594C27.8428 61.9031 34.4845 65.7058 47.5581 68.2903C47.2899 68.5075 47.0294 68.7383 46.7855 68.9904C45.2061 70.6269 44.3808 72.7824 44.4609 75.0614C44.5522 77.6003 45.9928 80.0514 48.3151 81.6196C49.7836 82.6104 51.2978 83.1029 52.853 83.0667C55.3355 92.137 61.3566 99.7477 69.3898 104.37C69.3892 104.395 69.3755 104.415 69.3755 104.44V107.604L50.8428 115.802C41.9172 119.749 36.1494 128.582 36.1494 138.305V157.827C36.1494 159.137 37.2121 160.2 38.5228 160.2H55.1361H109.723H126.336C127.647 160.2 128.709 159.137 128.709 157.827V138.305C128.71 128.582 122.942 119.749 114.017 115.802ZM55.2821 64.0836C55.2714 62.9711 55.949 61.9885 56.9529 61.6503C57.2211 61.569 57.4988 61.4961 57.7693 61.4165C58.4813 61.2047 59.204 61.0297 59.9213 60.8351C58.3128 62.198 56.7535 63.2938 55.2821 64.0836ZM109.54 66.3727C93.8808 75.033 77.1856 64.261 70.7954 58.5602C82.5481 56.833 94.5821 57.2864 105.741 60.0388C108.019 60.6007 109.586 62.6637 109.552 65.0531C109.546 65.5408 109.541 65.9781 109.54 66.3727ZM55.1367 34.6993C71.7595 26.6858 89.645 26.7261 109.723 34.8162V44.7379C99.8829 43.26 89.0825 42.72 81.2434 42.72C74.0302 42.72 64.3096 43.1775 55.1367 44.4015V34.6993ZM32.59 56.96C32.59 53.7382 49.7629 47.4667 81.2434 47.4667C112.724 47.4667 129.897 53.7382 129.897 56.96C129.897 57.8921 126.937 61.0267 114.193 63.5941C113.647 59.652 110.813 56.4011 106.878 55.4316C94.1252 52.2834 80.2911 51.9742 66.9381 54.379C66.9345 54.3796 66.9304 54.3784 66.9268 54.379C66.8675 54.3897 66.8117 54.4051 66.753 54.4158C64.8229 54.7671 62.9022 55.1634 60.9977 55.6298C60.8167 55.6731 60.6476 55.7289 60.4672 55.7728C58.8415 56.1804 57.2157 56.5922 55.6155 57.084C55.5675 57.0989 55.5253 57.1238 55.4785 57.1392C55.412 57.1594 55.3402 57.1748 55.2738 57.195C52.3836 58.085 50.4298 60.8547 50.5212 63.9293C50.5218 63.9584 50.5223 63.9886 50.5235 64.0177C37.0371 61.5957 32.59 58.2511 32.59 56.96ZM56.9695 79.8834C56.833 79.2171 56.4177 78.641 55.8279 78.3028C55.4642 78.0928 55.056 77.9866 54.6448 77.9866C54.3897 77.9866 54.1352 78.0269 53.8883 78.1106C52.9752 78.4197 52.1267 78.4666 50.9703 77.6863C49.9183 76.9749 49.2413 75.904 49.2051 74.8935C49.1701 73.9145 49.5238 72.9895 50.2008 72.2882C50.8789 71.5857 51.7885 71.2 52.7628 71.2C53.4036 71.2 54.0444 70.9277 54.4917 70.4678C54.7932 70.1575 54.9973 69.8615 55.1284 69.3298C59.3434 67.7314 63.3484 64.4016 66.5542 61.0926C71.3513 65.7514 83.2589 74.4497 96.8759 74.4497C101.488 74.4497 106.293 73.4446 111.079 70.9502C111.4 71.1015 111.742 71.2 112.097 71.2C113.117 71.2 114.089 71.6379 114.766 72.4027C115.45 73.1782 115.756 74.1791 115.628 75.2234C115.51 76.1876 114.842 77.1345 113.845 77.7558C112.845 78.3794 111.998 78.4778 110.921 78.0963C110.282 77.8703 109.573 77.9284 108.977 78.2607C108.382 78.5924 107.958 79.1631 107.813 79.8289C105.501 90.4394 97.6573 99.1075 87.3458 102.45L86.2903 102.791C83.3859 103.732 80.2911 103.77 77.5801 102.899C67.0853 99.5198 59.188 90.7011 56.9695 79.8834ZM76.1259 107.418C77.9231 107.996 79.795 108.285 81.6896 108.285C83.7039 108.285 85.7444 107.958 87.7528 107.308L88.8084 106.966C89.4705 106.751 90.0929 106.456 90.7367 106.205V118.667C90.7367 123.247 87.01 126.973 82.43 126.973C77.8501 126.973 74.1234 123.247 74.1234 118.667V106.63C74.7915 106.891 75.437 107.196 76.1259 107.418ZM82.43 131.72C89.6278 131.72 95.4834 125.864 95.4834 118.667V112.794L107.35 118.043V138.84H57.51V118.043L69.3767 112.795V118.667C69.3767 125.864 75.2323 131.72 82.43 131.72ZM40.8967 138.305C40.8967 130.459 45.5544 123.33 52.7622 120.144L52.7634 120.143V141.213V155.453H40.8967V138.305ZM57.51 143.587H107.35V155.453H57.51V143.587ZM123.963 155.453H112.097V141.213V120.142L112.098 120.143C119.306 123.33 123.963 130.459 123.963 138.304V155.453Z" fill="#58732F"/>
<path d="M94.2972 80.6932C95.6079 80.6932 96.6705 79.6306 96.6705 78.3199C96.6705 77.0091 95.6079 75.9465 94.2972 75.9465C92.9864 75.9465 91.9238 77.0091 91.9238 78.3199C91.9238 79.6306 92.9864 80.6932 94.2972 80.6932Z" fill="#58732F"/>
<path d="M70.5638 80.6932C71.8745 80.6932 72.9371 79.6306 72.9371 78.3199C72.9371 77.0091 71.8745 75.9465 70.5638 75.9465C69.253 75.9465 68.1904 77.0091 68.1904 78.3199C68.1904 79.6306 69.253 80.6932 70.5638 80.6932Z" fill="#58732F"/>
<path d="M160.825 97.2462C160.761 96.0964 159.875 95.1921 158.749 95.0474C161.055 91.0667 160.839 86.3657 160.825 86.1284C160.758 84.9209 159.794 83.9568 158.587 83.8897C158.4 83.8773 155.41 83.7438 152.198 84.8296C152.241 84.4391 152.316 84.0588 152.316 83.6548C152.316 77.7493 147.292 73.1836 147.078 72.992C146.176 72.1856 144.814 72.1856 143.912 72.992C143.697 73.1842 138.675 77.7493 138.675 83.6548C138.675 83.6595 138.676 83.6643 138.676 83.669C135.403 82.5589 132.349 82.6959 132.155 82.7036C130.947 82.7707 129.983 83.7349 129.916 84.9423C129.902 85.1856 129.682 90.0088 132.06 94.0672C130.9 94.1805 129.981 95.1091 129.916 96.2827C129.902 96.5259 129.682 101.349 132.06 105.408C130.9 105.521 129.981 106.449 129.916 107.623C129.902 107.866 129.682 112.69 132.06 116.748C130.9 116.861 129.982 117.79 129.916 118.963C129.9 119.255 129.572 126.15 133.815 130.395C136.595 133.175 140.495 133.987 142.95 134.216V157.827C142.95 159.137 144.013 160.2 145.323 160.2C146.634 160.2 147.697 159.137 147.697 157.827V134.508C150.077 134.324 154.128 133.585 156.988 130.725C161.165 126.549 160.841 119.769 160.825 119.483C160.761 118.333 159.875 117.428 158.749 117.284C161.055 113.303 160.839 108.602 160.825 108.365C160.761 107.215 159.875 106.311 158.749 106.166C161.054 102.185 160.838 97.4842 160.825 97.2462ZM155.929 99.9038C155.686 101.545 155.089 103.677 153.632 105.133C152.176 106.589 150.043 107.187 148.404 107.429C148.646 105.788 149.244 103.656 150.699 102.201C152.155 100.744 154.288 100.146 155.929 99.9038ZM140.231 101.299C141.744 102.812 142.353 105.034 142.595 106.723C140.906 106.481 138.684 105.871 137.171 104.359C135.66 102.847 135.051 100.626 134.808 98.9378C136.499 99.1817 138.724 99.7917 140.231 101.299ZM140.231 112.64C141.742 114.152 142.353 116.372 142.595 118.06C140.904 117.817 138.679 117.206 137.171 115.698C135.66 114.186 135.051 111.966 134.808 110.278C136.499 110.521 138.724 111.132 140.231 112.64ZM153.632 116.252C152.176 117.707 150.045 118.304 148.405 118.548C148.649 116.905 149.247 114.77 150.698 113.318C152.155 111.862 154.287 111.264 155.928 111.022C155.685 112.663 155.089 114.795 153.632 116.252ZM153.632 94.0156C152.175 95.471 150.043 96.0691 148.403 96.3112C148.645 94.67 149.243 92.5381 150.699 91.0827C152.155 89.6261 154.288 89.028 155.928 88.7859C155.685 90.4265 155.089 92.5589 153.632 94.0156ZM145.495 78.3326C146.484 79.6652 147.569 81.5947 147.569 83.6542C147.569 85.7136 146.483 87.6443 145.495 88.9758C144.506 87.6431 143.422 85.7136 143.422 83.6542C143.422 81.5947 144.506 79.6646 145.495 78.3326ZM140.231 89.9583C141.742 91.4707 142.353 93.691 142.595 95.3796C140.904 95.1352 138.679 94.5258 137.171 93.0182C135.66 91.5058 135.051 89.2855 134.808 87.5969C136.499 87.8413 138.724 88.4507 140.231 89.9583ZM137.171 127.038C135.66 125.526 135.051 123.305 134.808 121.618C136.499 121.861 138.724 122.472 140.231 123.979C141.742 125.492 142.353 127.712 142.595 129.4C140.904 129.157 138.679 128.546 137.171 127.038ZM153.632 127.369C152.176 128.824 150.045 129.422 148.406 129.664C148.649 128.023 149.247 125.888 150.698 124.436C152.154 122.98 154.285 122.383 155.925 122.14C155.682 123.782 155.084 125.917 153.632 127.369Z" fill="#58732F"/>
<path d="M40.8964 98.4934V89C40.8964 87.6894 39.8338 86.6267 38.5231 86.6267C37.2124 86.6267 36.1497 87.6894 36.1497 89V98.4934C36.1497 101.51 34.257 104.079 31.6024 105.114V90.1867C31.6024 88.876 30.5398 87.8134 29.2291 87.8134C27.9184 87.8134 26.8558 88.876 26.8558 90.1867V105.238C23.9965 104.313 21.9098 101.656 21.9098 98.4934V89C21.9098 87.6894 20.8471 86.6267 19.5364 86.6267C18.2257 86.6267 17.1631 87.6894 17.1631 89V98.4934C17.1631 104.292 21.3502 109.113 26.8558 110.141V157.827C26.8558 159.137 27.9184 160.2 29.2291 160.2C30.5398 160.2 31.6024 159.137 31.6024 157.827V110.061C36.9092 108.88 40.8964 104.151 40.8964 98.4934Z" fill="#58732F"/>
</svg>
