<svg width="122" height="146" viewBox="0 0 122 146" fill="none" xmlns="http://www.w3.org/2000/svg">
<path d="M121.072 129.964L101.743 83.3008C101.251 82.1123 99.8882 81.5472 98.6994 82.0399C97.5106 82.5326 96.9458 83.8953 97.4385 85.0838L114.912 127.269L98.9737 122.651C97.9274 122.347 96.8101 122.81 96.2848 123.765L88.28 138.3L69.5308 93.0352C91.1708 88.8621 107.567 69.783 107.567 46.9434C107.568 21.0588 86.5093 0 60.6248 0C34.7402 0 13.6814 21.0588 13.6814 46.9434C13.6814 57.4277 17.1369 67.1196 22.9682 74.9421L0.177334 129.964C-0.1653 130.792 -0.00345766 131.742 0.5939 132.41C1.19095 133.077 2.1182 133.343 2.97836 133.094L21.7822 127.645L31.2256 144.794C31.6369 145.541 32.4207 146 33.2659 146C33.3088 146 33.352 145.999 33.3951 145.997C34.2895 145.947 35.076 145.389 35.4189 144.562L53.4782 100.963C53.9706 99.7739 53.4061 98.4111 52.2173 97.9188C51.0285 97.4264 49.6657 97.9909 49.1734 99.1797L32.9689 138.3L24.9647 123.765C24.4391 122.81 23.3211 122.347 22.2755 122.651L6.33729 127.269L26.3415 78.9742C34.9145 88.1442 47.1107 93.8864 60.6248 93.8864C62.0198 93.8864 63.3997 93.8215 64.764 93.7019L85.8309 144.562C86.1735 145.389 86.9604 145.947 87.8544 145.996C87.8979 145.999 87.9407 146 87.9839 146C88.8292 146 89.6129 145.541 90.0239 144.794L99.4676 127.645L118.271 133.094C119.132 133.343 120.059 133.077 120.656 132.41C121.253 131.742 121.415 130.792 121.072 129.964ZM18.341 46.9434C18.341 23.6281 37.3095 4.65957 60.6248 4.65957C83.94 4.65957 102.908 23.6281 102.908 46.9434C102.908 70.2586 83.94 89.2268 60.6248 89.2268C37.3095 89.2268 18.341 70.2586 18.341 46.9434Z" fill="#58732F"/>
<path d="M87.5442 38.1965C87.2761 37.3708 86.5703 36.7626 85.7139 36.6188L70.0369 33.988L62.6906 19.8915C62.2893 19.1215 61.4931 18.6384 60.6246 18.6384C59.7563 18.6384 58.9598 19.1215 58.5585 19.8915L51.2119 33.988L35.5352 36.6188C34.6788 36.7623 33.9734 37.3705 33.705 38.1965C33.4366 39.0225 33.6497 39.929 34.2582 40.5487L45.3946 51.8916L43.0524 67.6143C42.9244 68.4732 43.2847 69.3318 43.9874 69.8425C44.6894 70.3526 45.6179 70.4299 46.3952 70.0432L60.6246 62.9569L74.8537 70.0432C75.1826 70.2069 75.538 70.2876 75.8921 70.2876C76.3758 70.2876 76.8563 70.1373 77.2617 69.8428C77.9644 69.3321 78.3247 68.4735 78.1967 67.6146L75.8548 51.8919L86.9912 40.5487C87.5994 39.929 87.8125 39.0225 87.5442 38.1965ZM71.7168 49.4553C71.2049 49.9769 70.9673 50.7081 71.075 51.4306L72.9296 63.8792L61.6633 58.2687C61.3359 58.106 60.9805 58.0243 60.6246 58.0243C60.2689 58.0243 59.9129 58.1056 59.5861 58.2687L48.3199 63.8792L50.1744 51.4306C50.2822 50.7081 50.0445 49.9765 49.5326 49.4553L40.7151 40.4741L53.1273 38.391C53.848 38.2701 54.4702 37.8182 54.8079 37.1702L60.6246 26.0093L66.4413 37.1705C66.7792 37.8185 67.4011 38.2705 68.1218 38.3913L80.5343 40.4744L71.7168 49.4553Z" fill="#58732F"/>
<path d="M95.9174 49.293C94.6416 49.1225 93.4705 50.0209 93.3018 51.2966C91.1407 67.6073 77.0927 79.9077 60.6252 79.9077C42.4485 79.9077 27.6606 65.12 27.6606 46.9431C27.6606 28.7661 42.4485 13.9784 60.6252 13.9784C77.093 13.9784 91.1407 26.2785 93.3018 42.5895C93.4705 43.8652 94.6438 44.7642 95.9174 44.5931C97.1926 44.4241 98.09 43.253 97.9207 41.9775C95.4542 23.3591 79.4207 9.31885 60.6252 9.31885C39.8792 9.31885 23.001 26.1968 23.001 46.9431C23.001 67.6893 39.8792 84.5669 60.6252 84.5669C79.4207 84.5669 95.4542 70.5267 97.921 51.9083C98.09 50.6331 97.1929 49.462 95.9174 49.293Z" fill="#58732F"/>
</svg>
