<svg width="167" height="167" viewBox="0 0 167 167" fill="none" xmlns="http://www.w3.org/2000/svg">
<g clip-path="url(#clip0)">
<path d="M0.62291 21.9564C1.22903 21.2113 2.16879 20.8637 3.10577 20.9749C3.31987 20.986 3.52005 21.0222 3.72858 21.0834L164.948 64.9325C166.133 65.2551 166.967 66.3172 167 67.5433C167.031 68.7694 166.252 69.8732 165.087 70.2569L106.096 89.586L111.373 131.798C111.512 132.91 110.97 133.997 110 134.553C109.569 134.8 109.091 134.923 108.615 134.923C108.017 134.923 107.42 134.731 106.925 134.35L85.3352 117.818L66.4092 144.857C65.8865 145.605 65.0357 146.044 64.1321 146.044C64.0709 146.044 64.0069 146.041 63.943 146.039C62.9699 145.972 62.1052 145.402 61.6603 144.532L0.317062 24.9759C-0.194519 23.9972 -0.0721893 22.8127 0.62291 21.9564ZM19.9326 31.2539L103.438 84.6036L154.533 67.863L19.9326 31.2539ZM105.031 125.898L101.189 95.1662L88.5242 113.258L105.031 125.898ZM64.4935 137.889L99.1091 88.4378L9.85928 31.418L64.4935 137.889Z" fill="#58732F"/>
</g>
<defs>
<clipPath id="clip0">
<rect width="167" height="167" fill="white" transform="matrix(-1 0 0 1 167 0)"/>
</clipPath>
</defs>
</svg>
